<?xml version="1.0" encoding="UTF-8" standalone="no"?>
<!-- Created with Inkscape (http://www.inkscape.org/) -->

<svg
   xmlns:dc="http://purl.org/dc/elements/1.1/"
   xmlns:cc="http://creativecommons.org/ns#"
   xmlns:rdf="http://www.w3.org/1999/02/22-rdf-syntax-ns#"
   xmlns:svg="http://www.w3.org/2000/svg"
   xmlns="http://www.w3.org/2000/svg"
   xmlns:sodipodi="http://sodipodi.sourceforge.net/DTD/sodipodi-0.dtd"
   xmlns:inkscape="http://www.inkscape.org/namespaces/inkscape"
   width="410mm"
   height="265mm"
   viewBox="0 0 1452.7559 938.97638"
   id="svg4142"
   version="1.1"
   inkscape:version="0.91 r13725"
   sodipodi:docname="insidehumanbody-ESL-noedit.svg">
  <defs
     id="defs4144" />
  <sodipodi:namedview
     id="base"
     pagecolor="#ffffff"
     bordercolor="#666666"
     borderopacity="1.0"
     inkscape:pageopacity="0.0"
     inkscape:pageshadow="2"
     inkscape:zoom="0.20313883"
     inkscape:cx="1062.8942"
     inkscape:cy="534.69105"
     inkscape:document-units="px"
     inkscape:current-layer="layer1"
     showgrid="false"
     fit-margin-top="0"
     fit-margin-left="0"
     fit-margin-right="0"
     fit-margin-bottom="0"
     inkscape:window-width="1920"
     inkscape:window-height="1035"
     inkscape:window-x="0"
     inkscape:window-y="1"
     inkscape:window-maximized="1" />
  <metadata
     id="metadata4147">
    <rdf:RDF>
      <cc:Work
         rdf:about="">
        <dc:format>image/svg+xml</dc:format>
        <dc:type
           rdf:resource="http://purl.org/dc/dcmitype/StillImage" />
        <dc:title></dc:title>
      </cc:Work>
    </rdf:RDF>
  </metadata>
  <g
     inkscape:label="Layer 1"
     inkscape:groupmode="layer"
     id="layer1"
     transform="translate(1182.1799,-180.88676)">
    <path
       style="fill:#eeeeee;fill-opacity:1;fill-rule:evenodd;stroke:#000000;stroke-width:9;stroke-linecap:butt;stroke-linejoin:miter;stroke-miterlimit:4;stroke-dasharray:none;stroke-opacity:1"
       d="m -605.71429,202.3622 151.42858,0 L -440,285.21935 c 161.90476,4.7619 243.80952,129.52381 282.85714,194.28571 l 8.57143,85.71429 -122.85714,-5.71429 L -300,488.07649 l -31.42857,-40 c 0,0 -25.71429,174.28571 -28.57143,217.14286 -2.85714,42.85714 0,102.85714 0,102.85714 l 51.42857,297.14281 -6.81935,31.8866 -181.75208,1.7521 -2.85714,-53.6387 -31.42857,-48.5714 -17.14286,40 c 0,0 -5.71428,20 -11.42857,42.8572 -5.71429,22.8571 -11.42857,20 -11.42857,20 l -185.71429,5.7142 2.85715,-125.71424 28.57142,-100 22.85715,-122.85714 -2.85715,-162.85714 L -720,468.07649 l -74.28571,102.85714 -117.14287,-71.42857 28.57144,-62.85714 c 79.04762,-95.2381 106.66666,-130.47619 254.28571,-157.14286 z"
       id="path4701"
       inkscape:connector-curvature="0"
       sodipodi:nodetypes="ccccccccscccccccscccccccccccc" />
    <path
       style="fill:#49c353;fill-opacity:1;fill-rule:evenodd;stroke:#000000;stroke-width:5;stroke-linecap:butt;stroke-linejoin:miter;stroke-miterlimit:4;stroke-dasharray:none;stroke-opacity:1"
       d="m -545.71429,204.84883 2.85715,151.79909 17.14285,100 -8.57142,85.71428 25.71428,-5.71428 0,-88.57143 -20,-85.71429 2.85714,-100 -8.57142,-59.30176 z"
       id="path4711"
       inkscape:connector-curvature="0"
       sodipodi:nodetypes="cccccccccc" />
    <path
       style="fill:#e1cb48;fill-opacity:1;fill-rule:evenodd;stroke:#000000;stroke-width:5;stroke-linecap:butt;stroke-linejoin:miter;stroke-miterlimit:4;stroke-dasharray:none;stroke-opacity:1"
       d="m -533.21696,204.84883 1.78839,97.51337 -31.42857,48.57143 -28.57143,17.14286 17.14286,14.28571 51.42857,-54.28571 62.85714,62.85714 0,-34.28571 -51.42857,-40 -3.57678,-112.88925 z"
       id="path4703"
       inkscape:connector-curvature="0"
       sodipodi:nodetypes="ccccccccccc" />
    <path
       style="fill:#e14948;fill-opacity:1;fill-rule:evenodd;stroke:#000000;stroke-width:5;stroke-linecap:butt;stroke-linejoin:miter;stroke-miterlimit:4;stroke-dasharray:none;stroke-opacity:1"
       d="m -494.28571,396.64792 -37.14286,-5.71429 -17.14286,22.85715 -5.71428,25.71428 17.14285,37.14286 34.28572,17.14286 42.85714,-17.14286 -2.85714,-20 z"
       id="path4709"
       inkscape:connector-curvature="0" />
    <path
       style="fill:#cbc570;fill-opacity:1;fill-rule:evenodd;stroke:#000000;stroke-width:5;stroke-linecap:butt;stroke-linejoin:miter;stroke-miterlimit:4;stroke-dasharray:none;stroke-opacity:1"
       d="m -605.71429,608.07649 20,45.71429 -11.42857,68.57142 -31.42857,-25.71428 5.71429,-45.71429 -8.57143,-28.57143 z"
       id="path4715"
       inkscape:connector-curvature="0" />
    <path
       style="fill:#70cbc7;fill-opacity:1;fill-rule:evenodd;stroke:#000000;stroke-width:5;stroke-linecap:butt;stroke-linejoin:miter;stroke-miterlimit:4;stroke-dasharray:none;stroke-opacity:1"
       d="m -505.71429,585.21935 -2.85714,25.71428 -37.14286,37.14286 -25.71428,8.57143 17.14286,20 20,5.71428 74.28571,-25.71428 22.85714,-31.42857 14.28572,-31.42857 -11.42857,-28.57143 -34.28572,-28.57143 z"
       id="path4717"
       inkscape:connector-curvature="0" />
    <path
       style="fill:#9f9292;fill-rule:evenodd;stroke:#000000;stroke-width:5;stroke-linecap:butt;stroke-linejoin:miter;stroke-miterlimit:4;stroke-dasharray:none;stroke-opacity:1;fill-opacity:1"
       d="m -574.28571,665.21935 -20,37.14285 -2.85715,31.42858 40,5.71428 -11.42857,-31.42857 22.85714,-34.28571 z"
       id="path4719"
       inkscape:connector-curvature="0" />
    <path
       style="fill:#929f9d;fill-rule:evenodd;stroke:#000000;stroke-width:5;stroke-linecap:butt;stroke-linejoin:miter;stroke-miterlimit:4;stroke-dasharray:none;stroke-opacity:1;fill-opacity:1"
       d="m -448.57143,648.07649 34.28572,-11.42857 0,14.28571 -42.85715,37.14286 -31.42857,31.42857 -28.57143,25.71429 -45.71428,-17.14286 -11.42857,-37.14286 54.06288,-30.58068 z"
       id="path4721"
       inkscape:connector-curvature="0"
       sodipodi:nodetypes="cccccccccc" />
    <path
       style="fill:#d37f41;fill-opacity:1;fill-rule:evenodd;stroke:#000000;stroke-width:5;stroke-linecap:butt;stroke-linejoin:miter;stroke-miterlimit:4;stroke-dasharray:none;stroke-opacity:1"
       d="m -422.85714,588.07649 31.42857,31.42857 5.71428,42.85714 -28.57142,8.57143 -5.71429,-11.42857 -8.57143,-28.57143 z"
       id="path4723"
       inkscape:connector-curvature="0" />
    <path
       style="fill:#b16a35;fill-opacity:1;fill-rule:evenodd;stroke:#000000;stroke-width:5;stroke-linecap:butt;stroke-linejoin:miter;stroke-miterlimit:4;stroke-dasharray:none;stroke-opacity:1"
       d="M -657.14286,879.50506 -660,810.93363 l -5.71429,-31.42857 2.85715,-20 14.28571,-31.42857 c 0,0 -5.71428,-17.14286 5.71429,-14.28571 11.42857,2.85714 34.28571,8.57142 34.28571,8.57142 l 57.14286,-5.71428 2.85714,11.42857 60,-5.71429 57.14286,-11.42857 28.57143,-5.71428 2.85714,20 20,31.42857 -17.14286,31.42857 c 0,0 -2.85714,8.57143 2.85715,20 5.71428,11.42857 8.57142,37.14286 8.57142,37.14286 l -17.14285,31.42857 2.85714,31.42857 -8.57143,25.71429 -25.71428,2.85714 -22.85715,5.71428 L -520,925.21935 l -2.85714,8.57143 2.85714,65.71432 -22.85714,0 -5.71429,-74.28575 34.28572,-28.57143 34.28571,2.85714 40,-5.71428 -2.85714,-40 14.28571,-28.57143 -20,-20 11.42857,-25.71429 -11.42857,-14.28571 -14.28571,5.71428 -25.71429,0 -22.85714,5.71429 -42.85714,-17.14286 -17.14286,8.57143 -34.28572,-8.57143 c 0,0 -37.14285,-8.57143 -28.57142,2.85714 8.57142,11.42858 11.42857,40 11.42857,40 l -11.42857,20 20,40 -22.85715,37.14286 11.42857,8.57143 -2.85714,17.14286 -17.14286,-14.28572 z"
       id="path4725"
       inkscape:connector-curvature="0" />
    <path
       style="fill:#eff061;fill-opacity:1;fill-rule:evenodd;stroke:#000000;stroke-width:5;stroke-linecap:butt;stroke-linejoin:miter;stroke-miterlimit:4;stroke-dasharray:none;stroke-opacity:1"
       d="m -542.85714,885.21935 -28.57143,14.28571 0,31.42858 28.57143,17.14285 40,-11.42857 25.71428,-42.85714 -40,-8.57143 z"
       id="path4727"
       inkscape:connector-curvature="0"
       sodipodi:nodetypes="cccccccc" />
    <path
       style="fill:#48c8e1;fill-opacity:1;fill-rule:evenodd;stroke:#000000;stroke-width:5;stroke-linecap:butt;stroke-linejoin:miter;stroke-miterlimit:4;stroke-dasharray:none;stroke-opacity:1"
       d="m -605.71429,625.21935 14.28572,-20 17.14286,5.71428 14.28571,14.28572 -20,14.28571 -22.85714,-2.85714 z"
       id="path4733"
       inkscape:connector-curvature="0" />
    <path
       style="fill:#489fe1;fill-opacity:1;fill-rule:evenodd;stroke:#000000;stroke-width:5;stroke-linecap:butt;stroke-linejoin:miter;stroke-miterlimit:4;stroke-dasharray:none;stroke-opacity:1"
       d="m -462.50803,491.28275 -42.78223,0.30796 -54.41111,13.17478 -28.87006,20.45386 c 2.97193,-2.97193 -33.86287,-6.13713 -82.85714,62.85714 -19.3625,27.26648 2.85714,105.71429 2.85714,105.71429 L -642.85714,682.3622 -620,645.21935 c 0,0 37.14286,-25.71429 48.57143,-22.85714 11.42857,2.85714 48.57143,-25.71429 48.57143,-25.71429 0,0 20,-11.42857 25.71428,-22.85714 5.71429,-11.42858 42.85715,-40 42.85715,-40 z"
       id="path4713"
       inkscape:connector-curvature="0"
       sodipodi:nodetypes="ccccscccscscc" />
    <path
       style="fill:#a97c59;fill-opacity:1;fill-rule:evenodd;stroke:#000000;stroke-width:5;stroke-linecap:butt;stroke-linejoin:miter;stroke-miterlimit:4;stroke-dasharray:none;stroke-opacity:1"
       d="m -554.26179,882.2606 -35.82238,-5.70243 -13.02633,-22.80972 42.33555,5.70243 32.5658,14.25608 87.92766,2.85121 13.02631,-19.95851 -19.53948,-19.9585 -19.53948,-5.70244 -107.46713,-14.25607 -32.5658,5.70242 97.6974,19.95851 94.44081,11.40487 -61.87501,14.25607 -39.07897,-17.10729 c -13.02631,-5.70243 -61.87501,-11.40486 -61.87501,-11.40486 l -22.79606,-25.66094 c 0,0 -13.07664,-13.54598 3.20626,-10.69477 16.2829,2.85121 61.92533,7.84355 61.92533,7.84355 l 81.41451,25.66095 3.25657,-5.70244 13.02632,-14.25607 -16.28289,-17.1073 -68.38818,-25.66093 c 0,0 -55.36186,-5.70244 -68.38818,-2.85122 -13.02633,2.85122 -13.02633,5.70243 -3.25658,14.25608 9.76974,8.55365 94.44082,14.25607 94.44082,14.25607 0,0 32.56579,0 19.53947,2.85121 -13.02632,2.85123 -42.33553,2.85123 -42.33553,2.85123 0,0 -32.5658,-2.85123 -45.59212,-8.55365 -13.02633,-5.70244 -52.10528,-11.40486 -52.10528,-11.40486 l -3.25658,14.25607 c 0,0 3.25658,28.51216 3.25658,37.06581 0,8.55364 9.76974,48.47066 9.76974,48.47066 l 3.25658,8.55365 13.02632,2.85121 26.05264,0 z"
       id="path4737"
       inkscape:connector-curvature="0"
       sodipodi:nodetypes="ccccccccccccccsccsccccccsscscsccsccccc" />
    <path
       style="fill:#e1cb48;fill-opacity:1;fill-rule:evenodd;stroke:#000000;stroke-width:5;stroke-linecap:butt;stroke-linejoin:miter;stroke-miterlimit:4;stroke-dasharray:none;stroke-opacity:1"
       d="m -460,333.79078 -31.42857,37.14285 2.85714,54.28572 28.57143,94.28571 14.28571,31.42857 36.79374,28.94195 c 50.2781,-62.30857 27.96817,-30.84671 40.34912,-48.94195 L -360,442.3622 l -37.14286,-91.42857 -34.28571,-20 z"
       id="path4707"
       inkscape:connector-curvature="0"
       sodipodi:nodetypes="ccccccccccc" />
    <path
       style="fill:none;fill-rule:evenodd;stroke:#000000;stroke-width:5;stroke-linecap:butt;stroke-linejoin:miter;stroke-miterlimit:4;stroke-dasharray:none;stroke-opacity:1"
       d="M -517.14285,442.3622 -40,319.50506"
       id="path4739"
       inkscape:connector-curvature="0"
       sodipodi:nodetypes="cc" />
    <path
       style="fill:#e1cb48;fill-opacity:1;fill-rule:evenodd;stroke:#000000;stroke-width:5;stroke-linecap:butt;stroke-linejoin:miter;stroke-miterlimit:4;stroke-dasharray:none;stroke-opacity:1"
       d="m -551.42857,350.93363 -40,-22.85714 -54.28572,14.28571 -22.85714,42.85715 -25.71428,85.71428 5.71428,62.85715 25.71429,54.28571 45.5665,-11.7734 34.4335,-22.51231 14.28571,-82.85715 5.71429,-82.85714 z"
       id="path4705"
       inkscape:connector-curvature="0"
       sodipodi:nodetypes="cccccccccccc" />
    <path
       style="fill:none;fill-rule:evenodd;stroke:#000000;stroke-width:5;stroke-linecap:butt;stroke-linejoin:miter;stroke-miterlimit:4;stroke-dasharray:none;stroke-opacity:1"
       d="M -640,445.21935 -965.71424,316.64792"
       id="path4741"
       inkscape:connector-curvature="0"
       sodipodi:nodetypes="cc" />
    <path
       style="fill:none;fill-rule:evenodd;stroke:#000000;stroke-width:5;stroke-linecap:butt;stroke-linejoin:miter;stroke-miterlimit:4;stroke-dasharray:none;stroke-opacity:1"
       d="M -465.71429,822.3622 -100,770.93364"
       id="path4743"
       inkscape:connector-curvature="0"
       sodipodi:nodetypes="cc" />
    <path
       style="fill:none;fill-rule:evenodd;stroke:#000000;stroke-width:5;stroke-linecap:butt;stroke-linejoin:miter;stroke-miterlimit:4;stroke-dasharray:none;stroke-opacity:1"
       d="m -485.71429,622.3622 297.14286,22.85715"
       id="path4745"
       inkscape:connector-curvature="0" />
    <path
       style="fill:none;fill-rule:evenodd;stroke:#000000;stroke-width:5;stroke-linecap:butt;stroke-linejoin:miter;stroke-miterlimit:4;stroke-dasharray:none;stroke-opacity:1"
       d="m -622.85714,608.07649 -320,25.71429"
       id="path4747"
       inkscape:connector-curvature="0" />
    <path
       style="fill:none;fill-rule:evenodd;stroke:#000000;stroke-width:5;stroke-linecap:butt;stroke-linejoin:miter;stroke-miterlimit:4;stroke-dasharray:none;stroke-opacity:1"
       d="m -540.00935,916.63442 -317.12416,17.16986"
       id="path4749"
       inkscape:connector-curvature="0" />
    <g
       style="font-style:normal;font-weight:normal;font-size:40px;line-height:125%;font-family:sans-serif;letter-spacing:0px;word-spacing:0px;fill:#000000;fill-opacity:1;stroke:none;stroke-width:1px;stroke-linecap:butt;stroke-linejoin:miter;stroke-opacity:1"
       id="text4751">
      <path
         d="m -1155.7542,319.50507 -6.4257,0 0,-53.1836 6.4257,0 0,53.1836 z"
         style="font-size:70px"
         id="path4870" />
      <path
         d="m -1111.3206,319.50507 -6.4257,0 0,-4.23829 q -3.2471,2.56348 -6.2207,3.93067 -2.9737,1.36719 -6.5625,1.36719 -6.0157,0 -9.3653,-3.65723 -3.3496,-3.69141 -3.3496,-10.80078 l 0,-24.78028 6.4258,0 0,21.73829 q 0,2.90527 0.2734,4.99023 0.2735,2.05078 1.1621,3.52051 0.9229,1.5039 2.3926,2.1875 1.4697,0.68359 4.2725,0.68359 2.4951,0 5.4346,-1.29883 2.9736,-1.29882 5.5371,-3.31543 l 0,-28.50586 6.4257,0 0,38.17872 z"
         style="font-size:70px"
         id="path4872" />
      <path
         d="m -1066.7502,319.50507 -6.4258,0 0,-21.73829 q 0,-2.63183 -0.3076,-4.92187 -0.3077,-2.32422 -1.128,-3.62305 -0.8545,-1.43554 -2.4609,-2.11914 -1.6065,-0.71777 -4.1699,-0.71777 -2.6319,0 -5.503,1.29883 -2.8711,1.29882 -5.5029,3.31543 l 0,28.50586 -6.4258,0 0,-38.17872 6.4258,0 0,4.23829 q 3.0078,-2.49512 6.2207,-3.89649 3.2129,-1.40137 6.5967,-1.40137 6.1865,0 9.4336,3.72559 3.2471,3.72559 3.2471,10.73242 l 0,24.78028 z"
         style="font-size:70px"
         id="path4874" />
      <path
         d="m -1023.4104,315.16425 q 0,9.70703 -4.4092,14.25293 -4.4092,4.54589 -13.5693,4.54589 -3.042,0 -5.9473,-0.44433 -2.8711,-0.41016 -5.6738,-1.19629 l 0,-6.5625 0.3418,0 q 1.5723,0.61523 4.9902,1.5039 3.418,0.92286 6.836,0.92286 3.2812,0 5.4345,-0.78614 2.1533,-0.78613 3.3496,-2.1875 1.1963,-1.333 1.709,-3.21289 0.5127,-1.87988 0.5127,-4.2041 l 0,-3.48633 q -2.9053,2.32422 -5.5713,3.48633 -2.6318,1.12793 -6.7334,1.12793 -6.8359,0 -10.8691,-4.92187 -3.999,-4.95606 -3.999,-13.94532 0,-4.92187 1.3672,-8.47656 1.4013,-3.58887 3.7939,-6.18652 2.2217,-2.42676 5.4004,-3.75977 3.1787,-1.36719 6.3232,-1.36719 3.3155,0 5.5371,0.6836 2.2559,0.64941 4.751,2.0166 l 0.4102,-1.64063 6.0156,0 0,33.8379 z m -6.4258,-6.15235 0,-20.81543 q -2.5635,-1.16211 -4.7851,-1.64062 -2.1875,-0.5127 -4.375,-0.5127 -5.2979,0 -8.3399,3.55469 -3.042,3.55469 -3.042,10.32226 0,6.42579 2.2559,9.74122 2.2558,3.31543 7.4853,3.31543 2.8028,0 5.6055,-1.05957 2.8369,-1.09375 5.1953,-2.90528 z"
         style="font-size:70px"
         id="path4876" />
      <path
         d="m -983.48853,308.49921 q 0,5.22949 -4.34082,8.5791 -4.30664,3.34961 -11.79199,3.34961 -4.23826,0 -7.79296,-0.99121 -3.5205,-1.02539 -5.9131,-2.22168 l 0,-7.21192 0.3418,0 q 3.042,2.29004 6.7676,3.65723 3.7256,1.33301 7.14354,1.33301 4.23828,0 6.63086,-1.36719 2.39257,-1.36719 2.39257,-4.30664 0,-2.25586 -1.29882,-3.41797 -1.29883,-1.16211 -4.99024,-1.98242 -1.36719,-0.30762 -3.58887,-0.71778 -2.18754,-0.41015 -3.99904,-0.88867 -5.0244,-1.333 -7.1435,-3.89648 -2.085,-2.59766 -2.085,-6.35742 0,-2.3584 0.957,-4.44336 0.9912,-2.08496 2.9737,-3.72559 1.914,-1.60644 4.8535,-2.5293 2.9736,-0.95703 6.63084,-0.95703 3.41797,0 6.9043,0.8545 3.52051,0.82031 5.84473,2.0166 l 0,6.87011 -0.3418,0 q -2.46094,-1.81152 -5.98144,-3.04199 -3.52051,-1.26465 -6.9043,-1.26465 -3.52053,0 -5.94723,1.36719 -2.4268,1.33301 -2.4268,3.99902 0,2.3584 1.4697,3.55469 1.4356,1.19629 4.6485,1.94824 1.77731,0.41016 3.96481,0.82032 2.22168,0.41015 3.69141,0.75195 4.47754,1.02539 6.9043,3.52051 2.42675,2.52929 2.42675,6.69922 z"
         style="font-size:70px"
         id="path4878" />
    </g>
    <g
       style="font-style:normal;font-weight:normal;font-size:40px;line-height:125%;font-family:sans-serif;letter-spacing:0px;word-spacing:0px;fill:#000000;fill-opacity:1;stroke:none;stroke-width:1px;stroke-linecap:butt;stroke-linejoin:miter;stroke-opacity:1"
       id="text4755">
      <path
         d="m 9.675518,345.21936 -6.4257812,0 0,-21.73828 q 0,-2.63184 -0.3076172,-4.92188 -0.3076172,-2.32421 -1.1279297,-3.62304 -0.85449218,-1.43555 -2.46093749,-2.11914 -1.60644531,-0.71778 -4.16992191,-0.71778 -2.6318359,0 -5.5029295,1.29883 -2.871094,1.29883 -5.50293,3.31543 l 0,28.50586 -6.425781,0 0,-53.18359 6.425781,0 0,19.24316 q 3.007813,-2.49512 6.2207033,-3.89648 3.2128906,-1.40137 6.5966797,-1.40137 6.1865234,0 9.4335937,3.72559 3.2470703,3.72558 3.2470703,10.73242 l 0,24.78027 z"
         style="font-size:70px"
         id="path4797" />
      <path
         d="m 54.006573,326.79651 -28.129883,0 q 0,3.52051 1.05957,6.15234 1.059571,2.59766 2.905274,4.27246 1.777343,1.64063 4.204101,2.46094 2.460938,0.82031 5.400391,0.82031 3.896484,0 7.827148,-1.53808 3.964844,-1.57227 5.639649,-3.07617 l 0.341797,0 0,7.00683 q -3.247071,1.36719 -6.63086,2.29004 -3.383789,0.92285 -7.109375,0.92285 -9.501953,0 -14.833984,-5.12695 -5.332031,-5.16113 -5.332031,-14.62891 0,-9.36523 5.092773,-14.86816 5.126953,-5.50293 13.466797,-5.50293 7.724609,0 11.894531,4.51172 4.204102,4.51172 4.204102,12.81738 l 0,3.48633 z m -6.254883,-4.92188 q -0.03418,-5.05859 -2.563477,-7.82714 -2.495117,-2.76856 -7.62207,-2.76856 -5.161133,0 -8.237305,3.04199 -3.041992,3.042 -3.452148,7.55371 l 21.875,0 z"
         style="font-size:70px"
         id="path4799" />
      <path
         d="m 93.415752,345.21936 -6.391601,0 0,-4.06738 q -0.854492,0.58105 -2.324219,1.64062 -1.435547,1.02539 -2.802734,1.64063 -1.606446,0.78613 -3.691407,1.29883 -2.08496,0.54687 -4.887695,0.54687 -5.161133,0 -8.75,-3.41797 -3.588867,-3.41797 -3.588867,-8.71582 0,-4.34082 1.845703,-7.00683 1.879883,-2.7002 5.332031,-4.23829 3.486328,-1.53808 8.374024,-2.08496 4.887695,-0.54687 10.493164,-0.82031 l 0,-0.99121 q 0,-2.1875 -0.786133,-3.62305 -0.751953,-1.43554 -2.1875,-2.25586 -1.367187,-0.78613 -3.28125,-1.05957 -1.914062,-0.27343 -3.999023,-0.27343 -2.529297,0 -5.639649,0.68359 -3.110351,0.64941 -6.425781,1.91406 l -0.341797,0 0,-6.52832 q 1.879883,-0.51269 5.43457,-1.12793 3.554688,-0.61523 7.006836,-0.61523 4.033203,0 7.006836,0.68359 3.007813,0.64942 5.195313,2.25586 2.15332,1.57227 3.28125,4.06738 1.127929,2.49512 1.127929,6.18653 l 0,25.9082 z m -6.391601,-9.39941 0,-10.62989 q -2.939453,0.1709 -6.938477,0.5127 -3.964843,0.3418 -6.289062,0.99121 -2.768555,0.78613 -4.477539,2.46094 -1.708985,1.64062 -1.708985,4.5459 0,3.28125 1.982422,4.95605 1.982422,1.64063 6.049805,1.64063 3.383789,0 6.186523,-1.29883 2.802735,-1.33301 5.195313,-3.17871 z"
         style="font-size:70px"
         id="path4801" />
      <path
         d="m 129.54368,314.04749 -0.34179,0 q -1.43555,-0.3418 -2.80274,-0.47852 -1.33301,-0.1709 -3.17871,-0.1709 -2.97363,0 -5.74219,1.33301 -2.76855,1.29883 -5.33203,3.38379 l 0,27.10449 -6.42578,0 0,-38.17871 6.42578,0 0,5.63965 q 3.82813,-3.07617 6.7334,-4.34082 2.93945,-1.29883 5.98144,-1.29883 1.67481,0 2.42676,0.10254 0.75196,0.0684 2.25586,0.30762 l 0,6.59668 z"
         style="font-size:70px"
         id="path4803" />
      <path
         d="m 155.48606,344.87756 q -1.81152,0.47852 -3.96484,0.78614 -2.11914,0.30761 -3.79394,0.30761 -5.84473,0 -8.88672,-3.14453 -3.042,-3.14453 -3.042,-10.08301 l 0,-20.30273 -4.34082,0 0,-5.40039 4.34082,0 0,-10.97168 6.42579,0 0,10.97168 13.26171,0 0,5.40039 -13.26171,0 0,17.39746 q 0,3.00781 0.13671,4.7168 0.13672,1.6748 0.95704,3.14453 0.75195,1.36719 2.05078,2.0166 1.33301,0.61524 4.0332,0.61524 1.57227,0 3.28125,-0.44434 1.70898,-0.47852 2.46094,-0.78613 l 0.34179,0 0,5.77636 z"
         style="font-size:70px"
         id="path4805" />
    </g>
    <g
       style="font-style:normal;font-weight:normal;font-size:40px;line-height:125%;font-family:sans-serif;letter-spacing:0px;word-spacing:0px;fill:#000000;fill-opacity:1;stroke:none;stroke-width:1px;stroke-linecap:butt;stroke-linejoin:miter;stroke-opacity:1"
       id="text4759">
      <path
         d="m -137.83006,665.64209 q 0,5.22949 -4.34082,8.5791 -4.30664,3.34961 -11.792,3.34961 -4.23828,0 -7.79296,-0.99121 -3.52051,-1.02539 -5.91309,-2.22168 l 0,-7.21191 0.3418,0 q 3.04199,2.29004 6.76757,3.65722 3.72559,1.33301 7.14356,1.33301 4.23828,0 6.63086,-1.36719 2.39258,-1.36718 2.39258,-4.30664 0,-2.25586 -1.29883,-3.41797 -1.29883,-1.16211 -4.99024,-1.98242 -1.36718,-0.30762 -3.58886,-0.71777 -2.1875,-0.41016 -3.99903,-0.88867 -5.02441,-1.33301 -7.14355,-3.89649 -2.08496,-2.59765 -2.08496,-6.35742 0,-2.3584 0.95703,-4.44336 0.99121,-2.08496 2.97363,-3.72559 1.91406,-1.60644 4.85352,-2.52929 2.97363,-0.95703 6.63086,-0.95703 3.41797,0 6.90429,0.85449 3.52051,0.82031 5.84473,2.0166 l 0,6.87012 -0.3418,0 q -2.46093,-1.81153 -5.98144,-3.04199 -3.52051,-1.26465 -6.9043,-1.26465 -3.52051,0 -5.94726,1.36718 -2.42676,1.33301 -2.42676,3.99903 0,2.3584 1.46972,3.55469 1.43555,1.19628 4.64844,1.94824 1.77735,0.41015 3.96485,0.82031 2.22168,0.41016 3.6914,0.75195 4.47754,1.02539 6.9043,3.52051 2.42676,2.5293 2.42676,6.69922 z"
         style="font-size:70px"
         id="path4808" />
      <path
         d="m -108.91405,676.30615 q -1.81152,0.47852 -3.96484,0.78614 -2.11914,0.30761 -3.79395,0.30761 -5.84472,0 -8.88672,-3.14453 -3.04199,-3.14453 -3.04199,-10.08301 l 0,-20.30273 -4.34082,0 0,-5.40039 4.34082,0 0,-10.97168 6.42578,0 0,10.97168 13.26172,0 0,5.40039 -13.26172,0 0,17.39746 q 0,3.00781 0.13672,4.7168 0.13672,1.6748 0.95703,3.14453 0.75196,1.36719 2.05079,2.0166 1.333,0.61523 4.0332,0.61523 1.57226,0 3.28125,-0.44433 1.70898,-0.47852 2.46094,-0.78613 l 0.34179,0 0,5.77636 z"
         style="font-size:70px"
         id="path4810" />
      <path
         d="m -68.582016,657.57568 q 0,9.33106 -4.785156,14.73145 -4.785156,5.40039 -12.817383,5.40039 -8.100586,0 -12.885742,-5.40039 -4.750973,-5.40039 -4.750973,-14.73145 0,-9.33105 4.750973,-14.73144 4.785156,-5.43457 12.885742,-5.43457 8.032227,0 12.817383,5.43457 4.785156,5.40039 4.785156,14.73144 z m -6.630859,0 q 0,-7.41699 -2.905274,-11.00586 -2.905273,-3.62304 -8.066406,-3.62304 -5.229492,0 -8.134766,3.62304 -2.871093,3.58887 -2.871093,11.00586 0,7.17774 2.905273,10.90332 2.905273,3.69141 8.100586,3.69141 5.126953,0 8.032227,-3.65723 2.939453,-3.6914 2.939453,-10.9375 z"
         style="font-size:70px"
         id="path4812" />
      <path
         d="m -2.8886566,676.64795 -6.4257813,0 0,-21.73828 q 0,-2.46094 -0.2392578,-4.75098 -0.2050781,-2.29004 -0.9228513,-3.65723 -0.786133,-1.46972 -2.25586,-2.22167 -1.469726,-0.75196 -4.238281,-0.75196 -2.700195,0 -5.40039,1.36719 -2.700196,1.33301 -5.400391,3.41797 0.102539,0.78613 0.170898,1.8457 0.06836,1.02539 0.06836,2.05078 l 0,24.43848 -6.425782,0 0,-21.73828 q 0,-2.5293 -0.239257,-4.78516 -0.205078,-2.29004 -0.922852,-3.65722 -0.786133,-1.46973 -2.255859,-2.1875 -1.469727,-0.75196 -4.238282,-0.75196 -2.631835,0 -5.297851,1.29883 -2.631836,1.29883 -5.263672,3.31543 l 0,28.50586 -6.425781,0 0,-38.17871 6.425781,0 0,4.23828 q 3.007813,-2.49512 5.981445,-3.89648 3.007813,-1.40137 6.391602,-1.40137 3.896484,0 6.59668,1.64062 2.734375,1.64063 4.067382,4.5459 3.896485,-3.28125 7.109375,-4.7168 3.212891,-1.46972 6.870118,-1.46972 6.2890621,0 9.2626949,3.82812 3.0078125,3.79395 3.0078125,10.62989 l 0,24.78027 z"
         style="font-size:70px"
         id="path4814" />
      <path
         d="m 39.01564,676.64795 -6.391601,0 0,-4.06738 q -0.854492,0.58105 -2.324219,1.64062 -1.435547,1.02539 -2.802734,1.64063 -1.606446,0.78613 -3.691407,1.29882 -2.084961,0.54688 -4.887695,0.54688 -5.161133,0 -8.75,-3.41797 -3.5888672,-3.41797 -3.5888672,-8.71582 0,-4.34082 1.8457031,-7.00684 1.8798831,-2.70019 5.3320311,-4.23828 3.486328,-1.53808 8.374024,-2.08496 4.887695,-0.54687 10.493164,-0.82031 l 0,-0.99121 q 0,-2.1875 -0.786133,-3.62305 -0.751953,-1.43554 -2.1875,-2.25586 -1.367188,-0.78613 -3.28125,-1.05957 -1.914063,-0.27344 -3.999024,-0.27344 -2.529296,0 -5.639648,0.6836 -3.110352,0.64941 -6.425781,1.91406 l -0.3417971,0 0,-6.52832 q 1.8798831,-0.51269 5.4345701,-1.12793 3.554688,-0.61523 7.006836,-0.61523 4.033203,0 7.006836,0.68359 3.007813,0.64941 5.195313,2.25586 2.15332,1.57227 3.28125,4.06738 1.127929,2.49512 1.127929,6.18653 l 0,25.9082 z m -6.391601,-9.39941 0,-10.62989 q -2.939453,0.1709 -6.938477,0.5127 -3.964844,0.34179 -6.289062,0.99121 -2.768555,0.78613 -4.477539,2.46094 -1.708985,1.64062 -1.708985,4.54589 0,3.28125 1.982422,4.95606 1.982422,1.64062 6.049805,1.64062 3.383789,0 6.186523,-1.29882 2.802735,-1.33301 5.195313,-3.17871 z"
         style="font-size:70px"
         id="path4816" />
      <path
         d="m 79.55275,674.25537 q -3.212891,1.53809 -6.118164,2.39258 -2.871094,0.85449 -6.118164,0.85449 -4.135743,0 -7.587891,-1.19629 -3.452149,-1.23047 -5.913086,-3.6914 -2.495117,-2.46094 -3.862305,-6.22071 -1.367187,-3.75976 -1.367187,-8.78418 0,-9.36523 5.126953,-14.69726 5.161133,-5.33203 13.603516,-5.33203 3.28125,0 6.425781,0.92285 3.178711,0.92285 5.810547,2.25586 l 0,7.14355 -0.341797,0 q -2.939453,-2.29004 -6.083985,-3.52051 -3.110351,-1.23046 -6.083984,-1.23046 -5.46875,0 -8.647461,3.6914 -3.144531,3.65723 -3.144531,10.7666 0,6.9043 3.076172,10.62989 3.110351,3.6914 8.71582,3.6914 1.948242,0 3.964844,-0.51269 2.016601,-0.5127 3.623047,-1.33301 1.401367,-0.71777 2.631836,-1.50391 1.230468,-0.82031 1.948242,-1.40136 l 0.341797,0 0,7.07519 z"
         style="font-size:70px"
         id="path4818" />
      <path
         d="m 119.74806,676.64795 -6.42578,0 0,-21.73828 q 0,-2.63184 -0.30762,-4.92188 -0.30761,-2.32422 -1.12793,-3.62304 -0.85449,-1.43555 -2.46093,-2.11914 -1.60645,-0.71778 -4.16993,-0.71778 -2.63183,0 -5.502925,1.29883 -2.871094,1.29883 -5.50293,3.31543 l 0,28.50586 -6.425781,0 0,-53.18359 6.425781,0 0,19.24316 q 3.007813,-2.49512 6.220705,-3.89648 3.21289,-1.40137 6.59668,-1.40137 6.18652,0 9.43359,3.72558 3.24707,3.72559 3.24707,10.73243 l 0,24.78027 z"
         style="font-size:70px"
         id="path4820" />
    </g>
    <g
       style="font-style:normal;font-weight:normal;font-size:40px;line-height:125%;font-family:sans-serif;letter-spacing:0px;word-spacing:0px;fill:#000000;fill-opacity:1;stroke:none;stroke-width:1px;stroke-linecap:butt;stroke-linejoin:miter;stroke-opacity:1"
       id="text4763">
      <path
         d="m -1101.4685,659.50507 -6.4258,0 0,-53.1836 6.4258,0 0,53.1836 z"
         style="font-size:70px"
         id="path4859" />
      <path
         d="m -1081.781,614.93475 -7.2461,0 0,-6.66504 7.2461,0 0,6.66504 z m -0.4102,44.57032 -6.4257,0 0,-38.17872 6.4257,0 0,38.17872 z"
         style="font-size:70px"
         id="path4861" />
      <path
         d="m -1036.3904,621.32635 -15.4492,38.17872 -6.46,0 -15.3466,-38.17872 6.9726,0 11.8262,30.38575 11.7236,-30.38575 6.7334,0 z"
         style="font-size:70px"
         id="path4863" />
      <path
         d="m -996.02417,641.08221 -28.12993,0 q 0,3.52051 1.0596,6.15235 1.0596,2.59765 2.9053,4.27246 1.7773,1.64062 4.2041,2.46094 2.4609,0.82031 5.4004,0.82031 3.8965,0 7.8271,-1.53809 3.96488,-1.57226 5.63968,-3.07617 l 0.3418,0 0,7.00684 q -3.24708,1.36718 -6.63088,2.29004 -3.3838,0.92285 -7.1094,0.92285 -9.5019,0 -14.8339,-5.12696 -5.3321,-5.16113 -5.3321,-14.6289 0,-9.36524 5.0928,-14.86817 5.127,-5.50293 13.4668,-5.50293 7.7246,0 11.8945,4.51172 4.20413,4.51172 4.20413,12.81739 l 0,3.48632 z m -6.25493,-4.92187 q -0.034,-5.05859 -2.5634,-7.82715 -2.4951,-2.76855 -7.6221,-2.76855 -5.1611,0 -8.2373,3.04199 -3.042,3.04199 -3.4522,7.55371 l 21.875,0 z"
         style="font-size:70px"
         id="path4865" />
      <path
         d="m -962.45972,628.33319 -0.34179,0 q -1.43555,-0.3418 -2.80274,-0.47851 -1.33301,-0.1709 -3.17871,-0.1709 -2.97363,0 -5.74219,1.333 -2.76855,1.29883 -5.33203,3.38379 l 0,27.1045 -6.42578,0 0,-38.17872 6.42578,0 0,5.63965 q 3.82813,-3.07617 6.7334,-4.34082 2.93945,-1.29883 5.98145,-1.29883 1.6748,0 2.42675,0.10254 0.75196,0.0684 2.25586,0.30762 l 0,6.59668 z"
         style="font-size:70px"
         id="path4867" />
    </g>
    <g
       style="font-style:normal;font-weight:normal;font-size:40px;line-height:125%;font-family:sans-serif;letter-spacing:0px;word-spacing:0px;fill:#000000;fill-opacity:1;stroke:none;stroke-width:1px;stroke-linecap:butt;stroke-linejoin:miter;stroke-opacity:1"
       id="text4767">
      <path
         d="m -75.344063,754.93475 -7.246094,0 0,-6.66504 7.246094,0 0,6.66504 z m -0.410156,44.57032 -6.425781,0 0,-38.17872 6.425781,0 0,38.17872 z"
         style="font-size:70px"
         id="path4823" />
      <path
         d="m -31.047188,799.50507 -6.425781,0 0,-21.73829 q 0,-2.63183 -0.307617,-4.92187 -0.307617,-2.32422 -1.12793,-3.62305 -0.854492,-1.43554 -2.460937,-2.11914 -1.606446,-0.71777 -4.169922,-0.71777 -2.631836,0 -5.50293,1.29883 -2.871094,1.29882 -5.50293,3.31543 l 0,28.50586 -6.425781,0 0,-38.17872 6.425781,0 0,4.23829 q 3.007813,-2.49512 6.220703,-3.89649 3.212891,-1.40137 6.59668,-1.40137 6.186524,0 9.433594,3.72559 3.24707,3.72559 3.24707,10.73242 l 0,24.78028 z"
         style="font-size:70px"
         id="path4825" />
      <path
         d="m 1.1500778,799.16327 q -1.81152342,0.47851 -3.9648437,0.78613 -2.1191407,0.30762 -3.7939453,0.30762 -5.8447268,0 -8.8867188,-3.14453 -3.041992,-3.14453 -3.041992,-10.08301 l 0,-20.30273 -4.34082,0 0,-5.4004 4.34082,0 0,-10.97167 6.425781,0 0,10.97167 13.2617188,0 0,5.4004 -13.2617188,0 0,17.39746 q 0,3.00781 0.136719,4.71679 0.136719,1.67481 0.957031,3.14453 0.751953,1.36719 2.0507813,2.01661 1.3330078,0.61523 4.0332031,0.61523 1.5722657,0 3.28125,-0.44434 1.70898442,-0.47851 2.46093754,-0.78613 l 0.34179686,0 0,5.77637 z"
         style="font-size:70px"
         id="path4827" />
      <path
         d="m 40.901054,781.08221 -28.129882,0 q 0,3.52051 1.05957,6.15235 1.05957,2.59765 2.905273,4.27246 1.777344,1.64062 4.204102,2.46094 2.460937,0.82031 5.400391,0.82031 3.896484,0 7.827148,-1.53809 3.964844,-1.57226 5.639648,-3.07617 l 0.341797,0 0,7.00684 q -3.24707,1.36718 -6.630859,2.29004 -3.383789,0.92285 -7.109375,0.92285 -9.501953,0 -14.833984,-5.12696 -5.3320317,-5.16113 -5.3320317,-14.6289 0,-9.36524 5.0927737,-14.86817 5.126953,-5.50293 13.466797,-5.50293 7.724609,0 11.894531,4.51172 4.204101,4.51172 4.204101,12.81739 l 0,3.48632 z m -6.254882,-4.92187 q -0.03418,-5.05859 -2.563477,-7.82715 -2.495117,-2.76855 -7.62207,-2.76855 -5.161133,0 -8.237305,3.04199 -3.041992,3.04199 -3.452148,7.55371 l 21.875,0 z"
         style="font-size:70px"
         id="path4829" />
      <path
         d="m 77.917656,788.49921 q 0,5.22949 -4.34082,8.5791 -4.306641,3.34961 -11.791993,3.34961 -4.238281,0 -7.792968,-0.99121 -3.520508,-1.02539 -5.913086,-2.22168 l 0,-7.21192 0.341797,0 q 3.041992,2.29004 6.767578,3.65723 3.725586,1.33301 7.143554,1.33301 4.238282,0 6.63086,-1.36719 2.392578,-1.36719 2.392578,-4.30664 0,-2.25586 -1.298828,-3.41797 -1.298828,-1.16211 -4.990235,-1.98242 -1.367187,-0.30762 -3.588867,-0.71778 -2.1875,-0.41015 -3.999023,-0.88867 -5.024414,-1.333 -7.143555,-3.89648 -2.084961,-2.59766 -2.084961,-6.35742 0,-2.3584 0.957031,-4.44336 0.991211,-2.08496 2.973633,-3.72559 1.914063,-1.60644 4.853516,-2.5293 2.973633,-0.95703 6.630859,-0.95703 3.417969,0 6.904297,0.8545 3.520508,0.82031 5.844727,2.0166 l 0,6.87011 -0.341797,0 q -2.460938,-1.81152 -5.981445,-3.04199 -3.520508,-1.26465 -6.904297,-1.26465 -3.520508,0 -5.947266,1.36719 -2.426758,1.33301 -2.426758,3.99902 0,2.3584 1.469727,3.55469 1.435547,1.19629 4.648437,1.94824 1.777344,0.41016 3.964844,0.82032 2.22168,0.41015 3.691406,0.75195 4.477539,1.02539 6.904297,3.52051 2.426758,2.52929 2.426758,6.69922 z"
         style="font-size:70px"
         id="path4831" />
      <path
         d="m 106.83367,799.16327 q -1.81152,0.47851 -3.96484,0.78613 -2.11914,0.30762 -3.793947,0.30762 -5.844727,0 -8.886719,-3.14453 -3.041992,-3.14453 -3.041992,-10.08301 l 0,-20.30273 -4.340821,0 0,-5.4004 4.340821,0 0,-10.97167 6.425781,0 0,10.97167 13.261717,0 0,5.4004 -13.261717,0 0,17.39746 q 0,3.00781 0.136719,4.71679 0.136718,1.67481 0.957031,3.14453 0.751953,1.36719 2.050781,2.01661 1.333008,0.61523 4.033206,0.61523 1.57226,0 3.28125,-0.44434 1.70898,-0.47851 2.46093,-0.78613 l 0.3418,0 0,5.77637 z"
         style="font-size:70px"
         id="path4833" />
      <path
         d="m 121.53094,754.93475 -7.2461,0 0,-6.66504 7.2461,0 0,6.66504 z m -0.41016,44.57032 -6.42578,0 0,-38.17872 6.42578,0 0,38.17872 z"
         style="font-size:70px"
         id="path4835" />
      <path
         d="m 165.82781,799.50507 -6.42578,0 0,-21.73829 q 0,-2.63183 -0.30762,-4.92187 -0.30761,-2.32422 -1.12793,-3.62305 -0.85449,-1.43554 -2.46093,-2.11914 -1.60645,-0.71777 -4.16993,-0.71777 -2.63183,0 -5.50292,1.29883 -2.8711,1.29882 -5.50293,3.31543 l 0,28.50586 -6.42579,0 0,-38.17872 6.42579,0 0,4.23829 q 3.00781,-2.49512 6.2207,-3.89649 3.21289,-1.40137 6.59668,-1.40137 6.18652,0 9.43359,3.72559 3.24707,3.72559 3.24707,10.73242 l 0,24.78028 z"
         style="font-size:70px"
         id="path4837" />
      <path
         d="m 210.15887,781.08221 -28.12989,0 q 0,3.52051 1.05957,6.15235 1.05957,2.59765 2.90528,4.27246 1.77734,1.64062 4.2041,2.46094 2.46094,0.82031 5.40039,0.82031 3.89648,0 7.82715,-1.53809 3.96484,-1.57226 5.63965,-3.07617 l 0.34179,0 0,7.00684 q -3.24707,1.36718 -6.63086,2.29004 -3.38378,0.92285 -7.10937,0.92285 -9.50195,0 -14.83398,-5.12696 -5.33204,-5.16113 -5.33204,-14.6289 0,-9.36524 5.09278,-14.86817 5.12695,-5.50293 13.46679,-5.50293 7.72461,0 11.89454,4.51172 4.2041,4.51172 4.2041,12.81739 l 0,3.48632 z m -6.25489,-4.92187 q -0.0342,-5.05859 -2.56347,-7.82715 -2.49512,-2.76855 -7.62207,-2.76855 -5.16114,0 -8.23731,3.04199 -3.04199,3.04199 -3.45215,7.55371 l 21.875,0 z"
         style="font-size:70px"
         id="path4839" />
      <path
         d="m 247.17547,788.49921 q 0,5.22949 -4.34082,8.5791 -4.30664,3.34961 -11.79199,3.34961 -4.23829,0 -7.79297,-0.99121 -3.52051,-1.02539 -5.91309,-2.22168 l 0,-7.21192 0.3418,0 q 3.04199,2.29004 6.76758,3.65723 3.72558,1.33301 7.14355,1.33301 4.23828,0 6.63086,-1.36719 2.39258,-1.36719 2.39258,-4.30664 0,-2.25586 -1.29883,-3.41797 -1.29883,-1.16211 -4.99023,-1.98242 -1.36719,-0.30762 -3.58887,-0.71778 -2.1875,-0.41015 -3.99902,-0.88867 -5.02442,-1.333 -7.14356,-3.89648 -2.08496,-2.59766 -2.08496,-6.35742 0,-2.3584 0.95703,-4.44336 0.99121,-2.08496 2.97363,-3.72559 1.91407,-1.60644 4.85352,-2.5293 2.97363,-0.95703 6.63086,-0.95703 3.41797,0 6.9043,0.8545 3.5205,0.82031 5.84472,2.0166 l 0,6.87011 -0.34179,0 q -2.46094,-1.81152 -5.98145,-3.04199 -3.52051,-1.26465 -6.9043,-1.26465 -3.5205,0 -5.94726,1.36719 -2.42676,1.33301 -2.42676,3.99902 0,2.3584 1.46973,3.55469 1.43554,1.19629 4.64843,1.94824 1.77735,0.41016 3.96485,0.82032 2.22168,0.41015 3.6914,0.75195 4.47754,1.02539 6.9043,3.52051 2.42676,2.52929 2.42676,6.69922 z"
         style="font-size:70px"
         id="path4841" />
    </g>
    <path
       style="fill:none;fill-rule:evenodd;stroke:#000000;stroke-width:5;stroke-linecap:butt;stroke-linejoin:miter;stroke-miterlimit:4;stroke-dasharray:none;stroke-opacity:1"
       d="M -100,768.07649 -414.28571,762.3622"
       id="path4771"
       inkscape:connector-curvature="0"
       sodipodi:nodetypes="cc" />
    <g
       style="font-style:normal;font-weight:normal;font-size:40px;line-height:125%;font-family:sans-serif;letter-spacing:0px;word-spacing:0px;fill:#000000;fill-opacity:1;stroke:none;stroke-width:1px;stroke-linecap:butt;stroke-linejoin:miter;stroke-opacity:1"
       id="text4773">
      <path
         d="m -1087.7926,934.41089 q 0,4.78515 -1.3672,8.61328 -1.333,3.82812 -3.623,6.42578 -2.4268,2.7002 -5.3321,4.06738 -2.9052,1.33301 -6.3916,1.33301 -3.247,0 -5.6738,-0.78613 -2.4268,-0.75195 -4.7852,-2.05078 l -0.4101,1.77734 -6.0156,0 0,-53.18359 6.4257,0 0,19.0039 q 2.7002,-2.22168 5.7422,-3.62304 3.042,-1.43555 6.836,-1.43555 6.7675,0 10.664,5.19531 3.9307,5.19532 3.9307,14.66309 z m -6.6309,0.1709 q 0,-6.83594 -2.2558,-10.35645 -2.2559,-3.55469 -7.2803,-3.55469 -2.8027,0 -5.6738,1.23047 -2.8711,1.19629 -5.3321,3.11035 l 0,21.875 q 2.7344,1.23047 4.6827,1.70899 1.9824,0.47851 4.4775,0.47851 5.332,0 8.3398,-3.48632 3.042,-3.52051 3.042,-11.00586 z"
         style="font-size:70px"
         id="path4844" />
      <path
         d="m -1071.2838,953.79077 -6.4258,0 0,-53.18359 6.4258,0 0,53.18359 z"
         style="font-size:70px"
         id="path4846" />
      <path
         d="m -1028.8326,953.79077 -6.3916,0 0,-4.06738 q -0.8545,0.58105 -2.3243,1.64062 -1.4355,1.02539 -2.8027,1.64063 -1.6064,0.78613 -3.6914,1.29883 -2.085,0.54687 -4.8877,0.54687 -5.1611,0 -8.75,-3.41797 -3.5889,-3.41797 -3.5889,-8.71582 0,-4.34082 1.8457,-7.00683 1.8799,-2.7002 5.3321,-4.23828 3.4863,-1.53809 8.374,-2.08497 4.8877,-0.54687 10.4932,-0.82031 l 0,-0.99121 q 0,-2.1875 -0.7862,-3.62305 -0.7519,-1.43554 -2.1875,-2.25586 -1.3672,-0.78613 -3.2812,-1.05957 -1.9141,-0.27343 -3.999,-0.27343 -2.5293,0 -5.6397,0.68359 -3.1103,0.64941 -6.4258,1.91406 l -0.3418,0 0,-6.52832 q 1.8799,-0.51269 5.4346,-1.12793 3.5547,-0.61523 7.0068,-0.61523 4.0332,0 7.0069,0.68359 3.0078,0.64942 5.1953,2.25586 2.1533,1.57227 3.2812,4.06738 1.128,2.49512 1.128,6.18653 l 0,25.9082 z m -6.3916,-9.39941 0,-10.62989 q -2.9395,0.1709 -6.9385,0.5127 -3.9649,0.3418 -6.2891,0.99121 -2.7685,0.78613 -4.4775,2.46094 -1.709,1.64062 -1.709,4.5459 0,3.28125 1.9824,4.95605 1.9824,1.64063 6.0498,1.64063 3.3838,0 6.1865,-1.29883 2.8028,-1.33301 5.1954,-3.17871 z"
         style="font-size:70px"
         id="path4848" />
      <path
         d="m -985.56116,953.79077 -6.42578,0 0,-3.99902 q -2.76855,2.39258 -5.77637,3.72558 -3.00779,1.33301 -6.52829,1.33301 -6.836,0 -10.8692,-5.26367 -3.999,-5.26367 -3.999,-14.59473 0,-4.85351 1.3672,-8.64746 1.4014,-3.79394 3.7598,-6.45996 2.3242,-2.59765 5.4004,-3.96484 3.1103,-1.36719 6.4257,-1.36719 3.00785,0 5.33207,0.64941 2.32421,0.61524 4.88769,1.94825 l 0,-16.54297 6.42578,0 0,53.18359 z m -6.42578,-9.39941 0,-21.90918 q -2.59765,-1.16211 -4.64844,-1.60645 -2.05078,-0.44433 -4.47752,-0.44433 -5.4004,0 -8.4082,3.75976 -3.0078,3.75977 -3.0078,10.66406 0,6.80176 2.3242,10.35645 2.3242,3.52051 7.4512,3.52051 2.7343,0 5.53707,-1.19629 2.80273,-1.23047 5.22949,-3.14453 z"
         style="font-size:70px"
         id="path4850" />
      <path
         d="m -941.94788,953.79077 -6.42578,0 0,-3.99902 q -2.76855,2.39258 -5.77636,3.72558 -3.00782,1.33301 -6.52832,1.33301 -6.83594,0 -10.86915,-5.26367 -3.99902,-5.26367 -3.99902,-14.59473 0,-4.85351 1.36719,-8.64746 1.40137,-3.79394 3.75976,-6.45996 2.32422,-2.59765 5.40039,-3.96484 3.11036,-1.36719 6.42579,-1.36719 3.00781,0 5.33203,0.64941 2.32422,0.61524 4.88769,1.94825 l 0,-16.54297 6.42578,0 0,53.18359 z m -6.42578,-9.39941 0,-21.90918 q -2.59765,-1.16211 -4.64843,-1.60645 -2.05079,-0.44433 -4.47754,-0.44433 -5.40039,0 -8.40821,3.75976 -3.00781,3.75977 -3.00781,10.66406 0,6.80176 2.32422,10.35645 2.32422,3.52051 7.45117,3.52051 2.73438,0 5.53711,-1.19629 2.80273,-1.23047 5.22949,-3.14453 z"
         style="font-size:70px"
         id="path4852" />
      <path
         d="m -897.34338,935.36792 -28.12989,0 q 0,3.52051 1.05957,6.15234 1.05957,2.59766 2.90528,4.27246 1.77734,1.64063 4.2041,2.46094 2.46094,0.82031 5.40039,0.82031 3.89648,0 7.82715,-1.53808 3.96484,-1.57227 5.63965,-3.07617 l 0.34179,0 0,7.00683 q -3.24707,1.36719 -6.63086,2.29004 -3.38379,0.92285 -7.10937,0.92285 -9.50195,0 -14.83399,-5.12695 -5.33203,-5.16113 -5.33203,-14.62891 0,-9.36523 5.09278,-14.86816 5.12695,-5.50293 13.46679,-5.50293 7.72461,0 11.89453,4.51172 4.20411,4.51172 4.20411,12.81738 l 0,3.48633 z m -6.25489,-4.92188 q -0.0342,-5.05859 -2.56347,-7.82714 -2.49512,-2.76856 -7.62207,-2.76856 -5.16114,0 -8.23731,3.04199 -3.04199,3.042 -3.45215,7.55371 l 21.875,0 z"
         style="font-size:70px"
         id="path4854" />
      <path
         d="m -863.77893,922.6189 -0.3418,0 q -1.43554,-0.3418 -2.80273,-0.47852 -1.33301,-0.1709 -3.17871,-0.1709 -2.97364,0 -5.74219,1.33301 -2.76856,1.29883 -5.33203,3.38379 l 0,27.10449 -6.42578,0 0,-38.17871 6.42578,0 0,5.63965 q 3.82812,-3.07617 6.7334,-4.34082 2.93945,-1.29883 5.98144,-1.29883 1.67481,0 2.42676,0.10254 0.75195,0.0684 2.25586,0.30762 l 0,6.59668 z"
         style="font-size:70px"
         id="path4856" />
    </g>
  </g>
</svg>
